<svg width="32" height="32" viewBox="0 0 32 32" fill="none" xmlns="http://www.w3.org/2000/svg">
<path d="M9.55 18.208C10.3524 19.2951 11.2742 20.2566 12.4652 20.9366C13.8139 21.7074 15.2661 21.9401 16.7974 21.8692C17.513 21.8348 17.7282 21.6483 17.7611 20.9353C17.7833 20.4468 17.8398 19.9597 18.0801 19.521C18.3165 19.0904 18.6751 19.009 19.0886 19.277C19.2947 19.4121 19.4682 19.5815 19.6322 19.7627C20.0353 20.2027 20.4256 20.6582 20.8431 21.0838C21.3682 21.6183 21.9907 21.9333 22.772 21.8691L25.7988 21.8704C26.2859 21.8375 26.5394 21.2401 26.2597 20.6949C26.0627 20.3143 25.8042 19.9755 25.5309 19.647C24.9123 18.9038 24.1835 18.2708 23.4944 17.5984C22.8731 16.992 22.8338 16.64 23.3327 15.9401C23.8789 15.1757 24.4646 14.4419 25.0148 13.6815C25.5282 12.9711 26.0549 12.2618 26.3239 11.4124C26.496 10.8701 26.3437 10.6311 25.7897 10.5353C25.6939 10.5195 25.5941 10.5195 25.4969 10.5195L22.2035 10.5155C21.7977 10.5091 21.5745 10.6863 21.4313 11.046C21.237 11.532 21.0373 12.0178 20.806 12.4854C20.2837 13.5491 19.699 14.5771 18.8798 15.4464C18.6986 15.638 18.4976 15.8811 18.1957 15.7812C17.8189 15.6434 17.7073 15.0212 17.7137 14.8111L17.711 11.0094C17.6377 10.4672 17.5167 10.2241 16.9772 10.1189H13.5563C13.1008 10.1189 12.8709 10.2964 12.6265 10.5811C12.4873 10.7469 12.4439 10.8531 12.733 10.9083C13.3001 11.0158 13.6218 11.3836 13.7059 11.9524C13.8414 12.8624 13.832 13.7761 13.7533 14.6888C13.7311 14.9553 13.6851 15.2206 13.5798 15.47C13.4144 15.8627 13.1465 15.9416 12.7959 15.7C12.4796 15.4821 12.2564 15.1749 12.0369 14.8662C11.2163 13.7065 10.5625 12.4566 10.028 11.1432C9.87429 10.7637 9.60773 10.5341 9.20598 10.5274C8.21834 10.5116 7.2297 10.5092 6.24067 10.5287C5.64732 10.5391 5.46983 10.8282 5.7129 11.3678C6.78836 13.7616 7.98615 16.0884 9.55 18.208Z" fill="white"/>
<rect x="0.5" y="0.5" width="31" height="31" stroke="white"/>
</svg>
