<svg width="32" height="32" viewBox="0 0 32 32" fill="none" xmlns="http://www.w3.org/2000/svg">
<path d="M21.1482 5.61133H10.8515C7.96088 5.61133 5.60938 7.96283 5.60938 10.8535V21.15C5.60938 24.041 7.96088 26.3922 10.8515 26.3922H21.1482C24.0391 26.3922 26.3902 24.041 26.3902 21.15V10.8535C26.3902 7.96283 24.0391 5.61133 21.1482 5.61133ZM24.129 21.1501C24.129 22.7938 22.7917 24.131 21.1482 24.131H10.8515C9.20822 24.131 7.87098 22.7938 7.87098 21.1501V10.8535C7.87098 9.21017 9.20822 7.87294 10.8515 7.87294H21.1482C22.7917 7.87294 24.129 9.21009 24.129 10.8535V21.1501Z" fill="white"/>
<path d="M21.5245 11.7566C20.8259 11.7566 20.2578 11.1885 20.2578 10.4903C20.2578 9.79196 20.8259 9.22388 21.5245 9.22388C22.2228 9.22388 22.7908 9.79196 22.7908 10.4903C22.7908 11.1885 22.2228 11.7566 21.5245 11.7566Z" fill="white"/>
<path d="M16.0004 10.6497C13.0495 10.6497 10.6484 13.0507 10.6484 16.0016C10.6484 18.9527 13.0495 21.3538 16.0004 21.3538C18.9515 21.3538 21.3526 18.9527 21.3526 16.0016C21.3526 13.0508 18.9515 10.6497 16.0004 10.6497ZM16.0004 19.0927C14.2968 19.0927 12.9096 17.7058 12.9096 16.0017C12.9096 14.2982 14.2968 12.9116 16.0004 12.9116C17.7045 12.9116 19.0907 14.2982 19.0907 16.0017C19.0907 17.7057 17.7045 19.0927 16.0004 19.0927Z" fill="white"/>
<rect x="0.5" y="0.5" width="31" height="31" stroke="white"/>
</svg>
